<svg width="130" height="120" viewBox="0 0 130 120" fill="none" xmlns="http://www.w3.org/2000/svg">
<g clip-path="url(#clip0_12_110)">
<path d="M19.5 108.75V116.25C19.5 118.322 20.9544 120 22.75 120H68.25C70.0456 120 71.5 118.322 71.5 116.25V35.918C72.4262 35.4492 73.3119 34.8985 74.1386 34.2492L102.993 45.4125C104.695 46.0711 106.537 45.0117 107.108 43.05L109.174 35.9391C109.744 33.975 108.826 31.8492 107.126 31.1907L81.0448 21.1008C81.1302 20.3227 81.25 19.5539 81.25 18.75C81.25 8.39534 73.9741 2.50138e-05 65 2.50138e-05C58.9692 2.50138e-05 53.7672 3.8344 50.962 9.46174L27.0075 0.194556C25.3053 -0.464037 23.463 0.595338 22.8922 2.55706L20.8264 9.66799C20.2556 11.6321 21.1738 13.7578 22.8739 14.4164L49.6864 24.7899C51.1652 29.7703 54.3502 33.8227 58.498 35.9156V105H22.75C20.9544 105 19.5 106.678 19.5 108.75ZM0 71.25C0 81.6047 11.6411 90 26 90C40.3589 90 52 81.6047 52 71.25H51.9959C51.9959 67.5774 52.4184 69.5508 34.7202 28.7086C31.1289 20.4211 20.863 20.4375 17.2778 28.7086C-0.268124 69.2039 0.0040625 67.4578 0.0040625 71.25H0ZM11.375 67.5L26 33.75L40.625 67.5H11.375ZM78.0041 101.25H78C78 111.605 89.6411 120 104 120C118.359 120 130 111.605 130 101.25H129.996C129.996 97.5774 130.418 99.5508 112.72 58.7086C109.129 50.4211 98.863 50.4375 95.2778 58.7086C77.7319 99.2039 78.0041 97.4578 78.0041 101.25ZM89.375 97.5L104 63.75L118.625 97.5H89.375Z" fill="white"/>
</g>
<defs>
<clipPath id="clip0_12_110">
<rect width="130" height="120" fill="white"/>
</clipPath>
</defs>
</svg>
