<svg width="130" height="120" viewBox="0 0 130 120" fill="none" xmlns="http://www.w3.org/2000/svg">
<path d="M130 50.6249V54.3749C130 57.4816 127.575 59.9999 124.583 59.9999H122.778L116.884 102.841C116.122 108.383 111.551 112.5 106.16 112.5H23.8401C18.4489 112.5 13.8782 108.383 13.1156 102.841L7.22222 59.9999H5.41667C2.42509 59.9999 0 57.4816 0 54.3749V50.6249C0 47.5183 2.42509 44.9999 5.41667 44.9999H20.6152L44.7148 10.5888C47.0609 7.23907 51.5775 6.49821 54.8036 8.93454C58.0294 11.3709 58.7426 16.0614 56.3965 19.4113L38.4757 44.9999H91.5243L73.6035 19.4111C71.2574 16.0614 71.9708 11.3706 75.1966 8.93431C78.422 6.49798 82.9393 7.2386 85.2854 10.5885L109.385 44.9999H124.583C127.575 44.9999 130 47.5183 130 50.6249ZM70.4167 91.8749V65.6249C70.4167 62.5183 67.9916 59.9999 65 59.9999C62.0084 59.9999 59.5833 62.5183 59.5833 65.6249V91.8749C59.5833 94.9816 62.0084 97.4999 65 97.4999C67.9916 97.4999 70.4167 94.9816 70.4167 91.8749ZM95.6944 91.8749V65.6249C95.6944 62.5183 93.2694 59.9999 90.2778 59.9999C87.2862 59.9999 84.8611 62.5183 84.8611 65.6249V91.8749C84.8611 94.9816 87.2862 97.4999 90.2778 97.4999C93.2694 97.4999 95.6944 94.9816 95.6944 91.8749ZM45.1389 91.8749V65.6249C45.1389 62.5183 42.7138 59.9999 39.7222 59.9999C36.7306 59.9999 34.3056 62.5183 34.3056 65.6249V91.8749C34.3056 94.9816 36.7306 97.4999 39.7222 97.4999C42.7138 97.4999 45.1389 94.9816 45.1389 91.8749Z" fill="white"/>
</svg>
