<svg width="130" height="120" viewBox="0 0 130 120" fill="none" xmlns="http://www.w3.org/2000/svg">
<g clip-path="url(#clip0_12_84)">
<path d="M0 94.9922V105C0 113.273 21.8359 120 48.75 120C75.6641 120 97.5 113.273 97.5 105V94.9922C87.0137 101.812 67.8438 105 48.75 105C29.6562 105 10.4863 101.812 0 94.9922ZM81.25 30C108.164 30 130 23.2734 130 15C130 6.72656 108.164 0 81.25 0C54.3359 0 32.5 6.72656 32.5 15C32.5 23.2734 54.3359 30 81.25 30ZM0 70.4062V82.5C0 90.7734 21.8359 97.5 48.75 97.5C75.6641 97.5 97.5 90.7734 97.5 82.5V70.4062C87.0137 78.375 67.8184 82.5 48.75 82.5C29.6816 82.5 10.4863 78.375 0 70.4062ZM105.625 72.9844C120.174 70.3828 130 65.5547 130 60V49.9922C124.109 53.8359 115.451 56.4609 105.625 58.0781V72.9844ZM48.75 37.5C21.8359 37.5 0 45.8906 0 56.25C0 66.6094 21.8359 75 48.75 75C75.6641 75 97.5 66.6094 97.5 56.25C97.5 45.8906 75.6641 37.5 48.75 37.5ZM104.432 50.6953C119.666 48.1641 130 43.1953 130 37.5V27.4922C120.986 33.375 105.498 36.5391 89.1973 37.2891C96.6875 40.6406 102.197 45.1406 104.432 50.6953Z" fill="white"/>
</g>
<defs>
<clipPath id="clip0_12_84">
<rect width="130" height="120" fill="white"/>
</clipPath>
</defs>
</svg>
