<svg width="50" height="50" viewBox="0 0 50 50" fill="none" xmlns="http://www.w3.org/2000/svg">
<path fill-rule="evenodd" clip-rule="evenodd" d="M25 37.5C31.9035 37.5 37.5 31.9035 37.5 25C37.5 18.0964 31.9035 12.5 25 12.5C18.0964 12.5 12.5 18.0964 12.5 25C12.5 31.9035 18.0964 37.5 25 37.5ZM25 33.3333C29.6023 33.3333 33.3333 29.6023 33.3333 25C33.3333 20.3976 29.6023 16.6667 25 16.6667C20.3976 16.6667 16.6667 20.3976 16.6667 25C16.6667 29.6023 20.3976 33.3333 25 33.3333Z" fill="#555555"/>
<path d="M37.5 10.4166C36.3494 10.4166 35.4167 11.3494 35.4167 12.5C35.4167 13.6505 36.3494 14.5833 37.5 14.5833C38.6506 14.5833 39.5834 13.6505 39.5834 12.5C39.5834 11.3494 38.6506 10.4166 37.5 10.4166Z" fill="#555555"/>
<path fill-rule="evenodd" clip-rule="evenodd" d="M3.44573 8.9085C2.08331 11.5824 2.08331 15.0827 2.08331 22.0834V27.9167C2.08331 34.9173 2.08331 38.4178 3.44573 41.0915C4.64415 43.4436 6.5564 45.3559 8.90844 46.5542C11.5823 47.9167 15.0827 47.9167 22.0833 47.9167H27.9166C34.9173 47.9167 38.4177 47.9167 41.0914 46.5542C43.4435 45.3559 45.3558 43.4436 46.5541 41.0915C47.9167 38.4178 47.9166 34.9173 47.9166 27.9167V22.0834C47.9166 15.0827 47.9167 11.5824 46.5541 8.9085C45.3558 6.55646 43.4435 4.64421 41.0914 3.44579C38.4177 2.08337 34.9173 2.08337 27.9166 2.08337H22.0833C15.0827 2.08337 11.5823 2.08337 8.90844 3.44579C6.5564 4.64421 4.64415 6.55646 3.44573 8.9085ZM27.9166 6.25004H22.0833C18.5142 6.25004 16.088 6.25329 14.2126 6.4065C12.3859 6.55575 11.4517 6.82627 10.8001 7.15831C9.23204 7.95727 7.95721 9.2321 7.15825 10.8001C6.82621 11.4518 6.55569 12.386 6.40644 14.2127C6.25323 16.0881 6.24998 18.5143 6.24998 22.0834V27.9167C6.24998 31.4859 6.25323 33.9119 6.40644 35.7873C6.55569 37.6142 6.82621 38.5484 7.15825 39.2C7.95721 40.768 9.23204 42.0428 10.8001 42.8417C11.4517 43.1738 12.3859 43.4444 14.2126 43.5936C16.088 43.7467 18.5142 43.75 22.0833 43.75H27.9166C31.4858 43.75 33.9119 43.7467 35.7873 43.5936C37.6142 43.4444 38.5483 43.1738 39.2 42.8417C40.7679 42.0428 42.0427 40.768 42.8416 39.2C43.1737 38.5484 43.4444 37.6142 43.5935 35.7873C43.7467 33.9119 43.75 31.4859 43.75 27.9167V22.0834C43.75 18.5143 43.7467 16.0881 43.5935 14.2127C43.4444 12.386 43.1737 11.4518 42.8416 10.8001C42.0427 9.2321 40.7679 7.95727 39.2 7.15831C38.5483 6.82627 37.6142 6.55575 35.7873 6.4065C33.9119 6.25329 31.4858 6.25004 27.9166 6.25004Z" fill="#555555"/>
</svg>
