<svg width="130" height="120" viewBox="0 0 130 120" fill="none" xmlns="http://www.w3.org/2000/svg">
<path d="M52.1326 0.125946C51.3367 0.307762 50.7132 0.699371 50.3683 1.23083C49.7449 2.23783 49.6122 2.51755 48.2193 5.74831C47.4367 7.55251 46.7602 9.10496 46.7071 9.20286C46.6275 9.34272 46.4551 9.17489 46.0969 8.64342C45.8183 8.23782 45.2214 7.49657 44.7836 7.00706C41.653 3.5665 36.5591 2.65741 32.5928 4.85322C30.8683 5.81825 29.0245 7.93013 28.0561 10.084C27.4591 11.4127 27.3265 12.2238 27.3265 14.3917C27.3265 16.4616 27.5653 17.7623 28.1357 18.9931C28.5336 19.8462 29.7408 21.5525 30.4306 22.2238C30.6163 22.4196 30.7755 22.6154 30.7755 22.6854C30.7755 22.7413 28.6132 22.7973 25.9734 22.7973C23.3204 22.7973 20.6275 22.8672 19.9908 22.9371C18.0938 23.1749 17.3642 23.7483 17.0989 25.2029C17.0193 25.6224 16.9398 30.5875 16.8867 36.6154L16.8071 47.2728L15.7326 48.084C13.6898 49.5945 10.9306 52.2798 8.83465 54.8252C5.02751 59.4127 1.94996 65.9301 0.676488 72.098C0.145876 74.6714 0.0662842 75.8602 0.0662842 80.9092C0.0662842 86.4057 0.132611 86.9092 1.19384 90.8812C5.17343 105.748 16.7806 116.839 31.1071 119.497C33.9591 120.028 39.8489 120.07 43.1387 119.58C45.8316 119.175 49.7051 117.986 52.4112 116.713C62.7316 111.888 70.4918 102.504 73.5561 91.1469C74.3785 88.084 74.6438 85.8882 74.7765 81.1889C74.8561 77.9022 74.6969 75.1469 74.2724 72.9371C73.1183 66.8812 70.2265 60.2378 66.8438 55.8462C64.7347 53.1189 61.1796 49.5945 58.9377 48.0001L57.8367 47.2308V36.028V24.8112L57.1071 23.9022L56.3775 22.9791L53.3663 22.8952C51.7214 22.8392 49.002 22.7973 47.3306 22.7973C45.6724 22.7973 44.3061 22.7413 44.3061 22.6714C44.3061 22.6015 44.5847 22.1819 44.9163 21.7343C45.8847 20.4057 46.6938 18.9511 47.0255 17.9441L47.3306 16.9931L51.0183 16.9511C56.5632 16.8952 58.0622 17.1469 59.853 18.5036C61.0071 19.3707 61.9357 20.6154 62.8642 22.5175L63.5142 23.8462L63.6602 32.5175C63.7398 37.2868 63.8061 41.8602 63.8061 42.6854V44.1679L65.7693 45.9721C66.8438 46.9791 68.1836 48.3078 68.754 48.9371C69.3112 49.5805 69.7755 50.0001 69.7755 49.8882C69.7755 49.7903 69.6561 49.2029 69.5102 48.5875C68.8602 45.9301 68.6612 41.8742 69.0459 39.035C69.8153 33.3847 71.8449 29.1749 75.8908 24.9092C80.7857 19.7623 86.3173 17.4406 93.1887 17.6644C95.55 17.7483 96.8367 17.9441 98.8928 18.5315C105.181 20.3357 110.526 24.9791 113.485 31.1889C116.748 38.042 116.854 46.6294 113.737 53.1609C111.349 58.2099 106.481 63.2308 102.023 65.2308C98.5214 66.8113 94.1836 67.5945 90.5622 67.2868C86.251 66.9092 82.7622 65.5945 78.9153 62.8532C77.8938 62.1259 77.0714 61.6224 77.0714 61.7203C77.0714 61.9581 77.35 62.8812 78.0663 64.9651C79.3265 68.6714 80.1755 72.8952 80.6 77.6364L80.8255 80.2378L82.8949 80.7413C85.9989 81.5106 87.4714 81.7064 91.3979 81.8882C99.9673 82.3078 108.51 79.3427 115.806 73.4127C117.464 72.07 120.794 68.5315 122.054 66.7833C126.193 61.035 128.62 54.9791 129.602 47.9022C130.915 38.4616 128.793 28.7273 123.633 20.6015C122.041 18.084 120.582 16.2378 118.512 14.1259C116.536 12.112 115.169 10.9511 112.914 9.3567C109.014 6.62943 104.385 4.60147 99.8745 3.63643C95.0857 2.62944 89.6469 2.65741 84.8847 3.72035C81.3561 4.50356 78.5836 5.55251 74.7367 7.58048L72.0704 8.97908L66.9765 6.53153C57.2796 1.87419 53.5653 0.1679 52.9683 0.0839844C52.7561 0.0420227 52.3847 0.0699997 52.1326 0.125946ZM39.0398 9.59447C40.3 10.056 41.1357 10.8392 41.7989 12.1679C42.0775 12.7273 42.1173 12.9791 42.1173 14.3357C42.1173 15.8742 42.1173 15.8742 41.5469 17.035L40.9765 18.1959L40.4193 17.3148C39.6765 16.1259 38.7612 15.6224 37.3683 15.6085C36.2275 15.5945 35.9755 15.7343 34.7285 16.9092C34.251 17.3847 33.8 17.7623 33.7336 17.7623C33.5745 17.7623 32.8979 16.2798 32.6857 15.4546C32.4336 14.4896 32.4602 13.8882 32.7653 12.8112C33.2428 11.1889 34.8081 9.73433 36.4796 9.38467C37.1959 9.23083 38.2969 9.31475 39.0398 9.59447ZM38.8408 30.4616C40.0877 31.105 40.7244 32.1259 40.7244 33.5245C40.7244 34.5036 40.4061 35.2448 39.5571 36.2378L38.9602 36.9511L39.451 38.0001C40.0081 39.1889 40.2204 40.3637 39.9153 40.5735C39.5836 40.7833 35.604 40.7273 35.0867 40.5036C34.4632 40.2238 34.4898 39.9301 35.2061 38.3777L35.7898 37.1189L35.1796 36.3497C34.503 35.4966 33.9591 34.3777 33.9591 33.8322C33.9591 33.2308 34.3306 32.098 34.7418 31.5106C35.2326 30.7833 35.8428 30.3357 36.5989 30.1259C37.3551 29.9161 37.9255 30.0001 38.8408 30.4616ZM39.3316 55.7203C41.8785 55.8322 43.603 56.2238 45.9244 57.2308C51.403 59.5805 55.9132 63.8742 58.4734 69.2029C60.1847 72.7413 60.9275 76.2099 60.9275 80.5595C60.9275 85.1609 59.9326 89.077 57.7836 92.9092C54.2153 99.3008 48.6836 103.427 41.653 104.923C40.353 105.189 39.7163 105.245 37.3418 105.245C34.9275 105.245 34.3571 105.203 33.0306 104.909C26.6367 103.525 21.2244 99.7203 17.6826 94.1259C15.9449 91.3987 14.6449 87.8462 14.0347 84.1959C13.8091 82.8113 13.8091 78.028 14.0347 76.6434C15.7591 66.3497 22.5642 58.6574 32.1683 56.1539C33.5479 55.7903 36.0816 55.5245 37.2755 55.6224C37.5275 55.6364 38.4561 55.6924 39.3316 55.7203Z" fill="white"/>
</svg>
