<svg width="130" height="114" viewBox="0 0 130 114" fill="none" xmlns="http://www.w3.org/2000/svg">
<path d="M11.502 0.84375C6.67773 1.92188 2.33594 5.69531 0.736328 10.1484L0.126953 11.8828V57V102.117L0.736328 103.852C1.54883 106.102 3.45312 108.75 5.35742 110.203C7.08398 111.539 9.92773 112.852 11.8828 113.227C13.7617 113.578 83.7129 113.578 85.6172 113.227C86.3535 113.086 87.9023 112.547 89.0703 112.031C92.9551 110.32 95.9258 106.969 96.9922 103.031C97.4746 101.32 97.5 100.5 97.4492 92.2969L97.373 83.4141L95.875 85.2656C95.0371 86.2734 93.4629 88.1484 92.3711 89.3906L90.3906 91.6641V95.9062C90.3906 98.3438 90.2637 100.617 90.0859 101.25C89.6543 102.891 88.2832 104.719 86.8867 105.539C84.373 107.016 86.5312 106.945 48.2168 106.875L13.3301 106.805L11.9082 106.195C10.1055 105.422 8.73438 104.156 7.89648 102.492L7.23633 101.18L7.16016 57.8203C7.10938 25.9688 7.16016 14.0859 7.36328 13.0547C7.87109 10.6875 9.29297 8.92969 11.7559 7.73438L12.8223 7.19531L37.6035 7.125L62.4102 7.07812L62.5117 13.5703C62.6133 19.8516 62.6641 20.1562 63.2988 21.9609C64.9492 26.5781 68.9355 30.0234 74.0391 31.2188C75.7656 31.6406 76.8574 31.6875 83.1797 31.6875H90.3906L90.4414 40.5234L90.5176 49.3359L94.0215 44.0156L97.5254 38.6719L97.4492 33.3516C97.373 28.3594 97.3477 27.9844 96.7891 26.9531C95.9258 25.3594 69.5195 1.875 67.666 1.07812L66.3965 0.515625L39.6094 0.539062C18.916 0.5625 12.5176 0.632812 11.502 0.84375Z" fill="white"/>
<path d="M26.6602 18.3047C26.5332 18.5626 26.4063 19.4063 26.4063 20.1797V21.5626L24.6035 22.336C21.252 23.7657 19.627 26.2032 19.8555 29.3672C20.1094 32.461 21.8359 34.0782 27.1172 36.1641C30.7734 37.5938 31.7383 38.3204 31.7383 39.6329C31.7383 41.5079 30.0371 42.3985 26.7871 42.1641C25.7969 42.0938 24.2227 41.7657 23.2578 41.4376C22.2676 41.086 21.3281 40.8751 21.1758 40.9219C20.8203 41.0391 19.8047 43.9454 19.8047 44.7891C19.8047 45.4454 21.8105 46.3126 24.2734 46.7344C25.1875 46.8751 26.127 47.1563 26.3047 47.3438C26.5332 47.5313 26.6602 48.1641 26.6602 49.0079C26.6602 49.7344 26.7871 50.461 26.9648 50.6251C27.3457 50.9766 30.0625 51.0001 30.7481 50.6719C31.1543 50.461 31.2305 50.1563 31.2305 48.7032C31.2305 46.7813 31.2559 46.7344 33.0586 46.1251C36.4102 44.9766 38.7207 41.3204 38.0606 38.1563C37.4512 35.086 35.6484 33.4454 31.002 31.6407C27.4727 30.2579 26.1523 29.3438 26.1523 28.2657C26.1523 26.6485 27.6758 25.9219 30.5703 26.1329C31.5606 26.2032 33.0332 26.4844 33.8457 26.7891C34.7852 27.1172 35.3945 27.2344 35.5723 27.0704C35.9277 26.7422 36.8672 23.461 36.7149 23.086C36.5117 22.6407 35.0137 22.0782 33.0078 21.6797C32.1191 21.5157 31.2813 21.2344 31.1797 21.0704C31.0781 20.9063 30.9766 20.2969 30.9766 19.6876C30.9766 18.1641 30.5703 17.8594 28.5645 17.8594C27.2188 17.8594 26.8887 17.9297 26.6602 18.3047Z" fill="white"/>
<path d="M116.543 24.1172C114.233 25.1484 110.399 29.5312 105.067 37.3125C87.0138 63.6562 73.252 88.9687 73.0489 96.2109C72.9981 97.7109 73.0489 97.875 73.6837 98.3203L74.3438 98.7891L75.4864 98.1797C78.8634 96.3516 83.8145 91.3359 91.381 82.0781C99.3028 72.3984 107.656 60.6094 117.457 45.3516C119.539 42.0937 121.367 39.4219 121.494 39.4219C121.647 39.4219 122.332 39.7734 123.043 40.1953L124.338 40.9453L116.873 52.7812C112.785 59.2969 109.332 64.9219 109.205 65.3203C109.104 65.6953 109.104 66.3984 109.205 66.8437C109.459 67.8516 111.008 69.2578 111.77 69.1406C112.455 69.0469 129.746 41.6484 129.924 40.3594C130.102 39.1641 129.416 38.5078 126.192 36.7969C124.135 35.7187 123.449 35.2266 123.551 34.9687C124.973 31.7812 125.481 29.1328 124.947 27.6328C124.592 26.625 122.51 24.7969 121.037 24.1875C119.717 23.625 117.736 23.6015 116.543 24.1172Z" fill="white"/>
<path d="M44.0527 45.0469C41.4882 46.2188 41.4374 49.5938 43.9511 50.7891C44.5859 51.0938 47.0742 51.1406 62.6894 51.0938L80.7167 51.0235L81.4785 50.3438C82.9003 49.0781 83.1035 47.2031 81.9609 45.8672C80.8437 44.5547 81.1992 44.5781 62.4101 44.5781C45.6015 44.5781 45.0429 44.6016 44.0527 45.0469Z" fill="white"/>
<path d="M17.6211 57.9609C17.1641 58.0781 16.4531 58.5468 16.0215 58.9921C15.3359 59.7187 15.2344 59.9999 15.2344 61.1484C15.2344 62.3437 15.3105 62.5077 16.1992 63.3281C16.9863 64.0781 17.3926 64.2421 18.5352 64.3827C19.2969 64.4531 33.4395 64.4999 49.9434 64.4531C79.7773 64.3827 79.9551 64.3827 80.6406 63.8906C82.9766 62.2968 82.9766 59.9062 80.6406 58.3124C79.9551 57.8202 79.8281 57.8202 49.1816 57.7734C31.0527 57.7499 18.0781 57.8202 17.6211 57.9609Z" fill="white"/>
<path d="M16.834 71.5312C15.793 72.0938 15.2344 73.1016 15.2344 74.3438C15.2344 75.5859 15.8184 76.5234 17.0117 77.1328C17.9766 77.625 18.0273 77.625 46.084 77.625H74.166L75.8164 74.4609C76.7051 72.7031 77.4414 71.2266 77.4414 71.1797C77.4414 71.1094 63.9844 71.0625 47.5566 71.0625C18.332 71.0625 17.6211 71.0859 16.834 71.5312Z" fill="white"/>
<path d="M17.0371 84.5859C15.3359 85.3593 14.6757 87.6796 15.7167 89.2499C16.7578 90.8437 15.2597 90.7499 43.2402 90.7499H68.5039L69.2656 88.6874C69.6718 87.5624 70.2558 86.0859 70.5605 85.4062L71.0937 84.1874H44.4843C20.2109 84.1874 17.8242 84.2343 17.0371 84.5859Z" fill="white"/>
</svg>
