<svg width="130" height="120" viewBox="0 0 130 120" fill="none" xmlns="http://www.w3.org/2000/svg">
<path d="M81.25 78.75C81.25 80.8219 79.432 82.5 77.1875 82.5H52.8125C50.568 82.5 48.75 80.8219 48.75 78.75V67.5H0V101.25C0 107.25 5.6875 112.5 12.1875 112.5H117.812C124.312 112.5 130 107.25 130 101.25V67.5H81.25V78.75ZM117.812 30H97.5V18.75C97.5 12.75 91.8125 7.5 85.3125 7.5H44.6875C38.1875 7.5 32.5 12.75 32.5 18.75V30H12.1875C5.6875 30 0 35.25 0 41.25V60H130V41.25C130 35.25 124.312 30 117.812 30ZM81.25 30H48.75V22.5H81.25V30Z" fill="white"/>
</svg>
