<svg width="50" height="50" viewBox="0 0 50 50" fill="none" xmlns="http://www.w3.org/2000/svg">
<path fill-rule="evenodd" clip-rule="evenodd" d="M7.29169 25C7.29169 15.22 15.22 7.29167 25 7.29167C34.78 7.29167 42.7083 15.22 42.7083 25C42.7083 34.78 34.78 42.7083 25 42.7083C21.5162 42.7083 18.2735 41.7046 15.5374 39.971C15.0283 39.6485 14.4043 39.5623 13.8267 39.7346L7.8285 41.5248L10.0869 36.2402C10.3539 35.6156 10.2995 34.9002 9.94138 34.3231C8.26186 31.6167 7.29169 28.4248 7.29169 25ZM25 3.125C12.9188 3.125 3.12502 12.9188 3.12502 25C3.12502 28.8294 4.11073 32.434 5.843 35.5681L2.25096 43.9729C1.93342 44.716 2.07417 45.5756 2.61211 46.1785C3.15005 46.7817 3.98815 47.0192 4.76246 46.7879L14.1363 43.9906C17.3384 45.826 21.0494 46.875 25 46.875C37.0812 46.875 46.875 37.0812 46.875 25C46.875 12.9188 37.0812 3.125 25 3.125ZM29.776 29.5467L27.0381 31.4752C25.7558 30.7448 24.3381 29.7252 22.916 28.3031C21.4377 26.8248 20.3417 25.2985 19.5336 23.8985L21.2735 22.4217C22.0202 21.7879 22.2246 20.7194 21.7646 19.8547L19.5476 15.6881C19.249 15.127 18.7107 14.7329 18.0857 14.6178C17.4607 14.5027 16.8173 14.6792 16.3385 15.0971L15.6811 15.6707C14.1005 17.0503 13.1656 19.3173 13.9404 21.6127C14.7437 23.9923 16.458 27.7375 19.9698 31.2494C23.7481 35.0277 27.586 36.5156 29.8304 37.0935C31.6387 37.559 33.35 36.935 34.5558 35.9525L35.7881 34.9483C36.3152 34.519 36.5996 33.8592 36.55 33.181C36.5002 32.5029 36.1227 31.8917 35.5385 31.5435L32.0421 29.4602C31.3358 29.0396 30.4483 29.0733 29.776 29.5467Z" fill="#555555"/>
</svg>
