<svg width="81" height="88" viewBox="0 0 81 88" fill="none" xmlns="http://www.w3.org/2000/svg">
<path fill-rule="evenodd" clip-rule="evenodd" d="M64.9195 0.821177C63.1371 1.5427 62.6436 1.97903 59.3791 5.71998C55.2849 10.4118 47.0128 17.5935 45.698 17.5977C44.1323 17.6026 43.6491 16.244 44.8333 15.1654C46.0416 14.0646 46.4533 13.4026 46.7398 12.1L46.9494 11.1467H42.1931H37.437V11.8894C37.437 13.0554 38.2668 14.476 39.449 15.3333C41.2442 16.6353 40.1622 17.5594 36.1679 18.1361C32.3964 18.6805 32.8226 18.2043 26.1873 29.2832C22.8702 34.8217 19.8948 40.0687 19.5757 40.9432C19.2565 41.8178 18.8811 42.5332 18.7414 42.5332C18.5269 42.5332 18.2021 42.9862 17.4235 44.37C17.3543 44.4929 17.7506 44.7575 18.3038 44.958L19.31 45.3226L16.9063 48.2546C14.0681 51.717 10.4369 54.8584 6.2279 57.4934L3.1821 59.4L3.33539 62.208C3.5063 65.3423 3.0203 66.7578 1.0281 68.9255C-0.302727 70.3738 -0.270935 70.5085 1.35555 70.3205C7.4348 69.6177 13.058 63.3919 20.4114 49.2228L21.8872 46.3787L22.8386 46.8027C24.0858 47.3586 24.0641 47.364 24.6657 46.3613C25.3506 45.2198 25.3718 45.2701 23.9278 44.6315C22.8509 44.1554 22.7655 44.0498 23.3323 43.8948C23.894 43.7414 23.976 43.4927 23.876 42.2454C23.698 40.0261 24.5027 38.4724 28.0305 34.2249C29.7961 32.0993 32.079 29.0711 33.1037 27.4958L34.9667 24.6317L35.6995 26.1002C37.1584 29.023 37.3123 31.8434 36.0997 33.4401C32.6213 38.0202 32.2362 44.4158 34.8721 53.8266C39.1121 68.9648 32.8441 83.2348 20.2277 87.1668C18.2604 87.78 18.8999 88.0001 22.6492 88.0001C26.8714 88.0001 27.4762 87.796 29.7867 85.5922C30.6818 84.7386 31.2251 84.3486 30.9943 84.726C30.7632 85.1031 30.0506 85.9112 29.4109 86.5216C27.8885 87.9739 27.9041 88.0001 30.2889 88.0001C34.4349 88.0001 36.6612 85.1309 37.5721 78.6133C37.651 78.0487 37.6812 79.0393 37.6393 80.8149C37.5621 84.0807 37.4639 84.3963 35.4681 87.78C35.3966 87.9009 38.261 88.0001 41.8331 88.0001C45.4052 88.0001 48.3276 87.9285 48.3276 87.8411C48.3276 87.7536 48.019 87.3965 47.6418 87.0476C45.1132 84.7084 41.2651 78.6459 40.3406 75.545C39.4136 72.436 39.7945 72.5327 41.8543 75.9295C44.8969 80.9472 48.0541 84.3223 51.9445 86.7167L54.0296 88.0001L62.495 87.9894L70.9601 87.9789L68.5183 86.9913C54.5371 81.3364 38.7559 65.8481 38.8049 57.8292C38.811 56.8171 38.8994 56.9029 40.4601 59.4366C42.7441 63.1448 44.4113 65.2448 46.7961 67.4177L48.8382 69.2782L48.8497 64.6325C48.8604 60.2901 48.9428 59.6993 50.1135 55.5866C52.8993 45.8002 52.6478 40.0315 49.1642 33.8109C47.2159 30.3318 47.1669 29.1495 48.8493 26.2146C50.0307 24.1538 50.043 24.0955 49.5505 22.8635L49.0492 21.6097L53.5384 17.59C57.9263 13.6605 59.132 12.2596 62.7294 6.90925L64.4936 4.28514L66.7898 3.96173C68.8903 3.6659 69.1025 3.68317 69.2801 4.16576C69.387 4.45601 69.6556 4.69337 69.8769 4.69337C70.11 4.69337 70.2795 5.12534 70.2795 5.71998V6.74658H66.791H63.3025V7.62658C63.3025 8.35875 63.4392 8.50658 64.1154 8.50658H64.9282L63.86 12.0264C62.8947 15.2078 62.7185 15.546 62.0264 15.5464C61.3644 15.5466 61.2605 15.7003 61.2605 16.6805C61.2605 19.3257 64.6028 20.981 67.3655 19.7039C69.3666 18.7791 70.7162 15.5467 69.1013 15.5467C68.6017 15.5467 68.3397 15.2333 68.0592 14.3C67.8533 13.6143 67.388 12.121 67.0251 10.9813C66.6624 9.84158 66.3655 8.81864 66.3655 8.70799C66.3655 8.59716 68.5862 8.50658 71.3005 8.50658C75.0261 8.50658 76.2332 8.59646 76.2267 8.87327C76.1854 10.6315 74.2254 15.4022 73.4794 15.5607C70.4838 16.197 74.3813 20.5703 77.5565 20.1356C80.0288 19.7971 82.4868 15.8415 80.4403 15.4949C79.5297 15.3406 77.4644 8.50658 78.3284 8.50658C78.8011 8.50658 78.958 8.28736 78.958 7.62658V6.74658H75.5546H72.1514V5.82697C72.1514 5.21401 72.4456 4.67225 73.0337 4.20259C73.5652 3.77777 73.8358 3.31788 73.7143 3.04491C73.6033 2.79585 73.5126 2.34363 73.5126 2.03994C73.5126 0.102274 68.4634 -0.613837 64.9195 0.821177ZM40.2469 6.34917C39.3004 6.7513 37.7774 8.32943 37.7774 8.908C37.7774 9.00993 39.6916 9.09336 42.0315 9.09336C46.6074 9.09336 46.7641 9.02948 45.6117 7.63478C44.3076 6.0563 42.152 5.53969 40.2469 6.34917ZM66.0411 13.1191C66.2635 14.0426 66.5205 14.9666 66.6122 15.1725C66.7288 15.4345 66.3996 15.5467 65.5146 15.5467C64.6433 15.5467 64.3015 15.4328 64.4138 15.18C64.5038 14.9783 64.7741 14.0543 65.0151 13.1266C65.5523 11.057 65.5444 11.057 66.0411 13.1191ZM77.1462 15.494C75.803 15.6233 75.7907 15.585 76.4509 13.3202L77.0355 11.3141L77.579 13.357L78.1225 15.3999L77.1462 15.494Z" fill="#EDE1E1"/>
</svg>
